M48
;Layer_Color=9474304
;FILE_FORMAT=4:3
METRIC,LZ
;TYPE=PLATED
T1F00S00C0.600
T2F00S00C0.900
%
T01
X0070612Y008509
X0069596Y009271
X0067564
X0066335Y0094447
X0070104Y0094742
X0074422Y0095758
X0076454Y0098806
X0077216Y009271
Y009017
X007493Y0106172
X0073152Y0109982
X0065786Y0116332
X0062738Y0115062
X0064918Y0104246
X0079502Y010414
X0081026Y0107966
X0081534Y0117094
X0082804Y0098806
X008128Y0097028
X0079502Y008763
X0088392Y01016
X0092456
X006223Y0121666
X0066802Y0126238
T02
X0055346Y0084836
Y0087376
Y0089916
Y0092456
Y0094996
Y0097536
Y0100076
Y0102616
Y0105156
Y0107696
Y0110236
Y0112776
Y0115316
Y0117856
X0073211Y00812
X0075751
X0078291
X0080831
X0083371
X0101355Y0084641
Y0087181
Y0089721
Y0092261
Y0094801
Y0097341
Y0099881
Y0102421
Y0104961
Y0107501
Y0110041
Y0112581
Y0115121
Y0117661
Y0120201
Y0122741
X0083312Y0125476
X0080772
X0078232
X0075692
X0073152
X0055346Y0122936
Y0120396
M30
