%FSLAX44Y44*%
%MOMM*%
G71*
G01*
G75*
G04 Layer_Physical_Order=1*
G04 Layer_Color=255*
%ADD10O,2.0000X0.3500*%
%ADD11R,1.4000X1.5000*%
%ADD12R,1.5000X1.4000*%
%ADD13R,0.6000X1.6000*%
%ADD14R,1.6000X0.6000*%
%ADD15C,0.3000*%
%ADD16C,0.5000*%
%ADD17R,1.7000X1.7000*%
%ADD18C,1.7000*%
%ADD19R,1.7000X1.7000*%
%ADD20C,1.2700*%
D10*
X707180Y1054210D02*
D03*
Y1060710D02*
D03*
Y1067210D02*
D03*
Y1073710D02*
D03*
Y1080210D02*
D03*
Y1086710D02*
D03*
Y1093210D02*
D03*
Y1099710D02*
D03*
X649180Y1054210D02*
D03*
Y1060710D02*
D03*
Y1067210D02*
D03*
Y1073710D02*
D03*
Y1080210D02*
D03*
Y1086710D02*
D03*
Y1093210D02*
D03*
Y1099710D02*
D03*
X857460Y1196230D02*
D03*
Y1189730D02*
D03*
Y1183230D02*
D03*
Y1176730D02*
D03*
Y1170230D02*
D03*
Y1163730D02*
D03*
Y1157230D02*
D03*
Y1150730D02*
D03*
X915460Y1196230D02*
D03*
Y1189730D02*
D03*
Y1183230D02*
D03*
Y1176730D02*
D03*
Y1170230D02*
D03*
Y1163730D02*
D03*
Y1157230D02*
D03*
Y1150730D02*
D03*
X860000Y993030D02*
D03*
Y986530D02*
D03*
Y980030D02*
D03*
Y973530D02*
D03*
Y967030D02*
D03*
Y960530D02*
D03*
Y954030D02*
D03*
Y947530D02*
D03*
X918000Y993030D02*
D03*
Y986530D02*
D03*
Y980030D02*
D03*
Y973530D02*
D03*
Y967030D02*
D03*
Y960530D02*
D03*
Y954030D02*
D03*
Y947530D02*
D03*
X745280Y868790D02*
D03*
Y875290D02*
D03*
Y881790D02*
D03*
Y888290D02*
D03*
Y894790D02*
D03*
Y901290D02*
D03*
Y907790D02*
D03*
Y914290D02*
D03*
X687280Y868790D02*
D03*
Y875290D02*
D03*
Y881790D02*
D03*
Y888290D02*
D03*
Y894790D02*
D03*
Y901290D02*
D03*
Y907790D02*
D03*
Y914290D02*
D03*
D11*
X584360Y975360D02*
D03*
Y1000760D02*
D03*
Y1026160D02*
D03*
Y1127760D02*
D03*
Y1102360D02*
D03*
Y1076960D02*
D03*
Y1051560D02*
D03*
Y949960D02*
D03*
X990440Y1201928D02*
D03*
Y1176528D02*
D03*
Y1151128D02*
D03*
X989932Y1125474D02*
D03*
Y1100328D02*
D03*
X990186Y1074928D02*
D03*
X990440Y1049020D02*
D03*
Y845820D02*
D03*
Y871220D02*
D03*
Y896620D02*
D03*
Y922020D02*
D03*
Y947420D02*
D03*
Y972820D02*
D03*
X990694Y998474D02*
D03*
X990440Y1023620D02*
D03*
Y1227328D02*
D03*
X970440D02*
D03*
Y1201928D02*
D03*
Y1176528D02*
D03*
Y1151128D02*
D03*
X969932Y1125474D02*
D03*
Y1100328D02*
D03*
X970186Y1074928D02*
D03*
X970440Y1049020D02*
D03*
Y1023620D02*
D03*
X970694Y998474D02*
D03*
X970440Y972820D02*
D03*
Y947420D02*
D03*
Y922020D02*
D03*
Y896620D02*
D03*
Y871220D02*
D03*
Y845820D02*
D03*
X604360Y1127760D02*
D03*
Y1102360D02*
D03*
Y1076960D02*
D03*
Y1051560D02*
D03*
Y1026160D02*
D03*
Y1000760D02*
D03*
Y975360D02*
D03*
Y949960D02*
D03*
X792320Y1287780D02*
D03*
X772320D02*
D03*
D12*
X833120Y1170780D02*
D03*
Y1150780D02*
D03*
Y967580D02*
D03*
Y947580D02*
D03*
X751840Y1079660D02*
D03*
Y1099660D02*
D03*
X789940Y896780D02*
D03*
Y916780D02*
D03*
D13*
X642620Y1245760D02*
D03*
X633120Y1263760D02*
D03*
X652120D02*
D03*
X596900Y1205120D02*
D03*
X587400Y1223120D02*
D03*
X606400D02*
D03*
X642620Y1182260D02*
D03*
X633120Y1200260D02*
D03*
X652120D02*
D03*
X596900Y910480D02*
D03*
X587400Y928480D02*
D03*
X606400D02*
D03*
X650240Y831740D02*
D03*
X640740Y849740D02*
D03*
X659740D02*
D03*
X599440Y798720D02*
D03*
X589940Y816720D02*
D03*
X608940D02*
D03*
X596900Y867300D02*
D03*
X587400Y885300D02*
D03*
X606400D02*
D03*
D14*
X587900Y1160780D02*
D03*
X605900Y1170280D02*
D03*
Y1151280D02*
D03*
D15*
X924560Y993140D02*
Y1016000D01*
X924450Y993030D02*
X924560Y993140D01*
X918000Y993030D02*
X924450D01*
X831130Y1170230D02*
X857460D01*
X860000Y960530D02*
X891950D01*
X896620Y965200D01*
X847190Y1206500D02*
X857460Y1196230D01*
X731520Y1254760D02*
X769620Y1216660D01*
X756920Y1254760D02*
X787400Y1224280D01*
X782320Y1254760D02*
X805180Y1231900D01*
X807720Y1252220D02*
X820420Y1239520D01*
X851010Y1196230D02*
X857460D01*
X833120Y1170780D02*
Y1173480D01*
X878430Y1183230D02*
X881380Y1186180D01*
X882090Y1176730D02*
X889000Y1183640D01*
X881790Y1163730D02*
X896620Y1178560D01*
X857460Y1183230D02*
X878430D01*
X857460Y1176730D02*
X882090D01*
X807720Y1252220D02*
Y1254760D01*
X857460Y1163730D02*
X881790D01*
X891540Y1127920D02*
Y1137920D01*
X872230Y1157230D02*
X891540Y1137920D01*
X857460Y1157230D02*
X872230D01*
X891540Y1127920D02*
X970440Y1049020D01*
X970360Y921940D02*
X970440Y922020D01*
X931770Y960530D02*
X970360Y921940D01*
X918000Y960530D02*
X931770D01*
X927175Y954030D02*
X949960Y931245D01*
X970280Y972820D02*
X970440D01*
X969570Y973530D02*
X970280Y972820D01*
X918000Y973530D02*
X969570D01*
X967740Y1023620D02*
X970440D01*
X930650Y986530D02*
X967740Y1023620D01*
X918000Y986530D02*
X930650D01*
X918000Y947530D02*
X923190Y942340D01*
X918000Y954030D02*
X927175D01*
X914400Y1149670D02*
X915460Y1150730D01*
X914400Y1130714D02*
Y1149670D01*
Y1130714D02*
X970186Y1074928D01*
X924634Y1157230D02*
X955040Y1126825D01*
Y1115060D02*
Y1126825D01*
Y1115060D02*
X969772Y1100328D01*
X969932D01*
X960120Y1135286D02*
Y1135380D01*
X931770Y1163730D02*
X960120Y1135380D01*
X915460Y1163730D02*
X931770D01*
X968248Y1201928D02*
X970440D01*
X949550Y1183230D02*
X968248Y1201928D01*
X915460Y1183230D02*
X949550D01*
X967232Y1151128D02*
X970440D01*
X948130Y1170230D02*
X967232Y1151128D01*
X915460Y1170230D02*
X948130D01*
X915460Y1189730D02*
X932842D01*
X970440Y1227328D01*
X915460Y1176730D02*
X927100D01*
X927302Y1176528D01*
X970440D01*
X915460Y1157230D02*
X924634D01*
X960120Y1135286D02*
X969932Y1125474D01*
X617220Y1099820D02*
X634920Y1082120D01*
X604360Y1076960D02*
X609600D01*
X624860Y1061700D01*
X604360Y1051560D02*
X609600D01*
X604360Y1026160D02*
X607060D01*
X617220Y1028700D02*
Y1043940D01*
X609600Y1051560D02*
X617220Y1043940D01*
X604360Y1127760D02*
X604520D01*
X617220Y1115060D01*
Y1099820D02*
Y1115060D01*
X629920Y1043940D02*
Y1074420D01*
X604360Y1099980D02*
Y1102360D01*
Y1099980D02*
X629920Y1074420D01*
X828590Y967030D02*
X860000D01*
X670560Y922020D02*
X675640Y927100D01*
X657860Y1163320D02*
Y1184860D01*
X652780Y1189940D02*
X657860Y1184860D01*
X687280Y914290D02*
X695960Y922970D01*
Y927100D01*
X701040Y947420D02*
X712730Y935730D01*
X654000Y1262380D02*
X668020D01*
X652120Y1264260D02*
X654000Y1262380D01*
X629920Y1043940D02*
X642620Y1031240D01*
X657860D01*
X624860Y1036300D02*
Y1061700D01*
Y1036300D02*
X637540Y1023620D01*
X657860D01*
X617220Y1028700D02*
X629920Y1016000D01*
X607060Y1026160D02*
X624840Y1008380D01*
X658355Y1067210D02*
X659990D01*
X657860Y1023620D02*
X668020Y1033780D01*
X657860Y1031240D02*
X662940Y1036320D01*
Y1064260D01*
X659990Y1067210D02*
X662940Y1064260D01*
X683260Y1027967D02*
X683340Y1027887D01*
X649180Y1073710D02*
X661659D01*
X668020Y1067349D01*
Y1033780D02*
Y1067349D01*
X649180Y1080210D02*
X662230D01*
X673100Y1069340D01*
X649180Y1086710D02*
X663350D01*
X678180Y1071880D01*
X649180Y1093210D02*
X664470D01*
X683260Y1074420D01*
Y1027967D02*
Y1074420D01*
X644100Y1099820D02*
X665480D01*
X688340Y1076960D01*
X696970Y1093210D02*
X707180D01*
X693420Y1089660D02*
X696970Y1093210D01*
X828090Y947530D02*
X860000D01*
X723900Y937260D02*
X734060Y927100D01*
X772160D01*
X759460Y894080D02*
X762000Y891540D01*
X745280Y894790D02*
X758750D01*
X745280Y901290D02*
X772160D01*
X663350Y906370D02*
Y944470D01*
Y906370D02*
X668430Y901290D01*
X687280D01*
X670560Y914400D02*
Y922020D01*
Y914400D02*
X677170Y907790D01*
X687280D01*
X896620Y965200D02*
Y1036320D01*
X860000Y967030D02*
X878130D01*
X755180Y812000D02*
X757510D01*
X649180Y1042460D02*
Y1054210D01*
X745280Y875290D02*
X754455D01*
X789940Y916780D02*
X791075Y917915D01*
X745280Y881790D02*
X755026D01*
X745280Y888290D02*
X758179D01*
X770169Y876300D02*
X795020D01*
X847650Y973530D02*
X860000D01*
X820600Y978080D02*
X843100D01*
X812800Y970280D02*
X820600Y978080D01*
X843100D02*
X847650Y973530D01*
X828040Y988060D02*
X840191D01*
X848221Y980030D01*
X860000D01*
X745280Y914290D02*
X789940D01*
X835660Y1150780D02*
X857410D01*
X754455Y875290D02*
X765835Y863910D01*
X755180Y812000D02*
X759460Y816280D01*
X744110Y868790D02*
X745280D01*
X744110D02*
X759460Y853440D01*
Y816280D02*
Y853440D01*
X731930Y881790D02*
X745280D01*
X721360Y871220D02*
X731930Y881790D01*
X721360Y853440D02*
Y871220D01*
X751840Y795020D02*
X762000D01*
X769620Y802640D01*
Y825500D01*
X774700Y830580D01*
X789730D01*
X808310Y812000D01*
X744220Y802640D02*
X751840Y795020D01*
X744220Y802640D02*
Y830580D01*
X721360Y853440D02*
X744220Y830580D01*
X789940Y919050D02*
X791075Y917915D01*
X787400Y1145540D02*
X896620Y1036320D01*
X769620Y1216660D02*
X855980D01*
X873760Y1198880D01*
Y1189730D02*
Y1198880D01*
X857460Y1189730D02*
X873760D01*
X800100Y1158240D02*
X807560Y1150780D01*
X833120D01*
X787400Y1224280D02*
X858520D01*
X881380Y1201420D01*
Y1186180D02*
Y1201420D01*
X820420Y1239520D02*
X866140D01*
X896620Y1209040D01*
Y1178560D02*
Y1209040D01*
X805180Y1231900D02*
X861060D01*
X889000Y1203960D01*
Y1183640D02*
Y1203960D01*
X751840Y1079660D02*
X810100D01*
X810260Y1079500D01*
X765835Y863910D02*
X782010D01*
X833710Y812210D01*
X769620Y988060D02*
X828040D01*
X764540D02*
X828040D01*
X741680Y1010920D02*
X764540Y988060D01*
X878130Y967030D02*
X883920Y972820D01*
Y1013460D01*
X843280Y1033780D02*
X876300Y1000760D01*
Y990600D02*
Y1000760D01*
X872230Y986530D02*
X876300Y990600D01*
X860000Y986530D02*
X872230D01*
X860000Y954030D02*
X872230D01*
X889000Y937260D01*
X758179Y888290D02*
X770169Y876300D01*
X762000Y891540D02*
X787400D01*
X789940Y894080D01*
Y896780D01*
X707180Y1099710D02*
X711090D01*
X731520Y1120140D01*
X707180Y1080210D02*
X751290D01*
X749300Y1061720D02*
Y1064260D01*
X707180Y1073710D02*
X734770D01*
X749300Y1059180D01*
X707180Y1060710D02*
X722370D01*
X728980Y1054100D01*
X707180Y1067210D02*
X726030D01*
X741680Y1051560D01*
Y1010920D02*
Y1051560D01*
X728980Y970280D02*
Y1054100D01*
Y970280D02*
X741680Y957580D01*
X744220D01*
X707180Y966680D02*
Y1054210D01*
Y966680D02*
X723900Y949960D01*
Y937260D02*
Y949960D01*
X815340Y1170940D02*
X830580D01*
X833120Y1173480D01*
X787400Y1145540D02*
Y1188720D01*
X805180Y1206500D01*
X847190D01*
X800100Y1158240D02*
Y1183640D01*
X806190Y1189730D01*
X857460D01*
X751840Y1099660D02*
X812960D01*
X843280Y1069340D01*
Y1033780D02*
Y1069340D01*
X705170Y850900D02*
X706120D01*
Y868790D01*
X687280D02*
X706120D01*
X833120Y1254760D02*
X873760D01*
X915460Y1213060D01*
Y1196230D02*
Y1213060D01*
X706120Y868790D02*
X706230D01*
X732230Y894790D01*
X745280D01*
X727970Y907790D02*
X745280D01*
X712730Y923030D02*
X727970Y907790D01*
X712730Y923030D02*
Y935730D01*
X889000Y914400D02*
Y937260D01*
Y914400D02*
X957580Y845820D01*
X970440D01*
X923190Y908150D02*
Y942340D01*
Y908150D02*
X960120Y871220D01*
X970440D01*
X949960Y914400D02*
Y931245D01*
Y914400D02*
X967740Y896620D01*
X970440D01*
X918000Y967030D02*
X945590D01*
X965200Y947420D01*
X970440D01*
X918000Y980030D02*
X947010D01*
X965454Y998474D01*
X970694D01*
X707180Y1086710D02*
X718410D01*
X728980Y1097280D01*
X731520D01*
X795020Y1041400D02*
X797560D01*
X845820Y993140D01*
X857150D01*
X604360Y949960D02*
X650240D01*
X693420Y993140D01*
Y1089660D01*
X688340Y1003300D02*
Y1076960D01*
X607060Y1000760D02*
X670560D01*
X683340Y1013540D01*
Y1027887D01*
X624840Y1008380D02*
X665480D01*
X678180Y1021080D01*
Y1071880D01*
X629920Y1016000D02*
X660400D01*
X673100Y1028700D01*
Y1069340D01*
X604470Y975470D02*
X604580Y975360D01*
X660400D01*
X688340Y1003300D01*
X634920Y1064340D02*
Y1082120D01*
Y1064340D02*
X638550Y1060710D01*
X649180D01*
X606400Y1216660D02*
Y1223620D01*
Y1216660D02*
X622300D01*
X652780Y1189940D02*
Y1198880D01*
X606560Y1150620D02*
X627380D01*
X664770Y894790D02*
X687280D01*
X633620Y925940D02*
X664770Y894790D01*
X606400Y925940D02*
X633620D01*
X609390Y888290D02*
X687280D01*
X606400Y885300D02*
X609390Y888290D01*
X576080Y937260D02*
X587400Y925940D01*
X528320Y927100D02*
X538480Y937260D01*
X576080D01*
X570080Y907940D02*
X596900D01*
X553460Y924560D02*
X570080Y907940D01*
X528320Y886460D02*
X586240D01*
X587400Y885300D01*
X553460Y899160D02*
X589490D01*
X596900Y867300D02*
Y891750D01*
X589490Y899160D02*
X596900Y891750D01*
X640080Y782320D02*
X640740Y782980D01*
X528320Y861060D02*
X566420D01*
X584200Y843280D01*
X640080D01*
Y855800D01*
X650240Y831740D02*
Y863600D01*
X642620Y871220D02*
X650240Y863600D01*
X635000Y871220D02*
X642620D01*
X617220Y853440D02*
X635000Y871220D01*
X591820Y853440D02*
X617220D01*
X571500Y873760D02*
X591820Y853440D01*
X553460Y873760D02*
X571500D01*
X553460Y848360D02*
X568700Y833120D01*
X599440Y798720D02*
Y825500D01*
X591820Y833120D02*
X599440Y825500D01*
X568700Y833120D02*
X591820D01*
X665890Y881790D02*
X687280D01*
X659740Y875640D02*
X665890Y881790D01*
X659740Y849740D02*
Y875640D01*
X672090Y875290D02*
X687280D01*
X668020Y871220D02*
X672090Y875290D01*
X668020Y861060D02*
Y871220D01*
Y861060D02*
X675640Y853440D01*
Y817880D02*
Y853440D01*
X674480Y816720D02*
X675640Y817880D01*
X608940Y816720D02*
X674480D01*
X528320Y815560D02*
X529480Y816720D01*
D16*
X822960Y1287780D02*
X833120Y1277620D01*
X792320Y1287780D02*
X822960D01*
X767080D02*
X772160Y1282700D01*
X741680Y1287780D02*
X767080D01*
X731520Y1277620D02*
X741680Y1287780D01*
X553460Y1127760D02*
X584360D01*
X553460Y1102360D02*
X584360D01*
X553460Y1076960D02*
X584360D01*
X553460Y1051560D02*
X584360D01*
X553460Y949960D02*
X584360D01*
X553460Y975360D02*
X584360D01*
X553460Y1000760D02*
X584360D01*
X553460Y1026160D02*
X584360D01*
X1001350Y846410D02*
X1013550D01*
X1000760Y845820D02*
X1001350Y846410D01*
X990440Y845820D02*
X1000760D01*
X1001350Y871810D02*
X1013550D01*
X1000760Y871220D02*
X1001350Y871810D01*
X990440Y871220D02*
X1000760D01*
X1001350Y897210D02*
X1013550D01*
X1000760Y896620D02*
X1001350Y897210D01*
X990440Y896620D02*
X1000760D01*
X1001350Y922610D02*
X1013550D01*
X1000760Y922020D02*
X1001350Y922610D01*
X990440Y922020D02*
X1000760D01*
X1001350Y948010D02*
X1013550D01*
X1000760Y947420D02*
X1001350Y948010D01*
X990440Y947420D02*
X1000760D01*
X1001350Y973410D02*
X1013550D01*
X1000760Y972820D02*
X1001350Y973410D01*
X990440Y972820D02*
X1000760D01*
X1001096Y998810D02*
X1013550D01*
X1000760Y998474D02*
X1001096Y998810D01*
X990694Y998474D02*
X1000760D01*
X1001350Y1024210D02*
X1013550D01*
X1000760Y1023620D02*
X1001350Y1024210D01*
X990440Y1023620D02*
X1000760D01*
X1012960Y1049020D02*
X1013550Y1049610D01*
X990440Y1049020D02*
X1012960D01*
X1013468Y1074928D02*
X1013550Y1075010D01*
X990186Y1074928D02*
X1013468D01*
Y1100328D02*
X1013550Y1100410D01*
X989932Y1100328D02*
X1013468D01*
X1013214Y1125474D02*
X1013550Y1125810D01*
X989932Y1125474D02*
X1013214D01*
X1013468Y1151128D02*
X1013550Y1151210D01*
X990440Y1151128D02*
X1013468D01*
Y1176528D02*
X1013550Y1176610D01*
X990440Y1176528D02*
X1013468D01*
Y1201928D02*
X1013550Y1202010D01*
X990440Y1201928D02*
X1013468D01*
Y1227328D02*
X1013550Y1227410D01*
X990440Y1227328D02*
X1013468D01*
X833120Y1254760D02*
Y1277620D01*
X731520Y1254760D02*
Y1277620D01*
X554380Y1230280D02*
X557180D01*
X828680Y946940D02*
X833710D01*
X824525Y917915D02*
X833710Y927100D01*
Y946940D01*
X791075Y917915D02*
X824525D01*
X833710Y812800D02*
Y927100D01*
X706120Y837990D02*
X732110Y812000D01*
X706120Y837990D02*
Y845820D01*
X833710Y812000D02*
Y812210D01*
X731520Y1119980D02*
X751840Y1099660D01*
X731520Y1120140D02*
Y1254760D01*
X706120Y845820D02*
X708660Y848360D01*
X744220Y957580D02*
X767080D01*
X789940Y934720D01*
Y916780D02*
Y934720D01*
X554620Y1205120D02*
X557420D01*
X596900D01*
X553460Y1203960D02*
X556260D01*
X557420Y1205120D01*
X713740Y1254760D02*
X731520D01*
X688340Y1280160D02*
X713740Y1254760D01*
X640080Y1280160D02*
X688340D01*
X633120Y1273200D02*
X640080Y1280160D01*
X633120Y1263760D02*
Y1273200D01*
X685800Y1254760D02*
X713740D01*
X587400Y1223120D02*
Y1232560D01*
X554380Y1230280D02*
X573780Y1249680D01*
X642620D01*
Y1245760D02*
Y1249680D01*
X587400Y1232560D02*
X594360Y1239520D01*
X622300D01*
X635000Y1226820D01*
X646430Y1217930D02*
Y1226820D01*
X635000D02*
X646430D01*
X657860D01*
X579120Y1186180D02*
X612140D01*
X571500Y1178560D02*
X579120Y1186180D01*
X553460Y1178560D02*
X571500D01*
X632460Y1203960D02*
X646430Y1217930D01*
X612140Y1186180D02*
X614680Y1183640D01*
X640080D01*
X642620Y1181100D01*
X561080Y1160780D02*
X587900D01*
X553460Y1153160D02*
X561080Y1160780D01*
X662940Y1231900D02*
X680720Y1214120D01*
Y1153160D02*
Y1214120D01*
X670560Y1143000D02*
X680720Y1153160D01*
X657860Y1143000D02*
X670560D01*
X630580Y1170280D02*
X657860Y1143000D01*
X605900Y1170280D02*
X630580D01*
X657860Y1226820D02*
X662940Y1231900D01*
X685800Y1254760D01*
X528320Y810260D02*
X556260Y782320D01*
X528320Y886460D02*
Y927100D01*
X529480Y816720D02*
X589940D01*
X556260Y782320D02*
X640080D01*
X528320Y861060D02*
Y886460D01*
Y815560D02*
Y861060D01*
Y810260D02*
Y815560D01*
X640080Y782320D02*
X815340D01*
X833710Y800690D01*
Y812000D01*
D17*
X1013550Y1227410D02*
D03*
X553460Y1229360D02*
D03*
D18*
X1013550Y1202010D02*
D03*
Y1176610D02*
D03*
Y1151210D02*
D03*
Y1125810D02*
D03*
Y1100410D02*
D03*
Y1075010D02*
D03*
Y1049610D02*
D03*
Y1024210D02*
D03*
Y998810D02*
D03*
Y973410D02*
D03*
Y948010D02*
D03*
Y922610D02*
D03*
Y897210D02*
D03*
Y871810D02*
D03*
Y846410D02*
D03*
X553460Y1203960D02*
D03*
Y1178560D02*
D03*
Y1153160D02*
D03*
Y1127760D02*
D03*
Y1102360D02*
D03*
Y1076960D02*
D03*
Y1051560D02*
D03*
Y1026160D02*
D03*
Y1000760D02*
D03*
Y975360D02*
D03*
Y949960D02*
D03*
Y924560D02*
D03*
Y899160D02*
D03*
Y873760D02*
D03*
Y848360D02*
D03*
X833120Y1254760D02*
D03*
X807720D02*
D03*
X782320D02*
D03*
X756920D02*
D03*
X732110Y812000D02*
D03*
X757510D02*
D03*
X782910D02*
D03*
X808310D02*
D03*
D19*
X731520Y1254760D02*
D03*
X833710Y812000D02*
D03*
D20*
X924560Y1016000D02*
D03*
X815340Y1170940D02*
D03*
X663350Y944470D02*
D03*
X627380Y1150620D02*
D03*
X675640Y927100D02*
D03*
X657860Y1163320D02*
D03*
X695960Y927100D02*
D03*
X622300Y1216660D02*
D03*
X701040Y947420D02*
D03*
X668020Y1262380D02*
D03*
X772160Y927100D02*
D03*
Y901700D02*
D03*
X731520Y1099820D02*
D03*
X795020Y1041400D02*
D03*
X883920Y1016000D02*
D03*
X810260Y1079660D02*
D03*
X649180Y1042460D02*
D03*
X706120Y850900D02*
D03*
X795020Y876300D02*
D03*
X812800Y970280D02*
D03*
X828040Y988060D02*
D03*
X744220Y957580D02*
D03*
X764540Y988060D02*
D03*
X749300Y1061720D02*
D03*
M02*
