%FSLAX43Y43*%
%MOMM*%
G71*
G01*
G75*
G04 Layer_Physical_Order=2*
G04 Layer_Color=16711680*
%ADD10R,1.500X1.400*%
%ADD11R,1.600X0.600*%
%ADD12R,0.600X1.600*%
%ADD13R,1.400X1.500*%
%ADD14O,2.000X0.350*%
%ADD15O,0.350X2.000*%
%ADD16C,0.300*%
%ADD17C,0.500*%
%ADD18R,1.700X1.700*%
%ADD19C,1.700*%
%ADD20C,1.500*%
%ADD21R,1.500X1.500*%
%ADD22C,1.270*%
D16*
X26090Y11270D02*
Y11440D01*
X26050Y11230D02*
X26090Y11270D01*
X25770Y11510D02*
X26050Y11230D01*
X24570Y20400D02*
X31130D01*
X22840Y11510D02*
X25770D01*
X19190Y15250D02*
Y15710D01*
X18700Y14760D02*
X19190Y15250D01*
X20850Y14790D02*
Y16530D01*
X20000Y13940D02*
X20850Y14790D01*
X17300Y20080D02*
X20850Y16530D01*
X26050Y19010D02*
Y19160D01*
Y19010D02*
X29510Y15550D01*
X15205Y18195D02*
Y18445D01*
X5920Y27730D02*
X15205Y18445D01*
X5920Y27730D02*
Y38090D01*
X7940Y36790D02*
X10350Y39200D01*
X7940Y30970D02*
Y36790D01*
Y30970D02*
X17300Y21610D01*
X8590Y39900D02*
Y40570D01*
X7670Y38980D02*
X8590Y39900D01*
X6810Y38980D02*
X7670D01*
X5920Y38090D02*
X6810Y38980D01*
X6820Y40360D02*
X7350D01*
X5020Y38560D02*
X6820Y40360D01*
X5020Y26300D02*
Y38560D01*
X6850Y37020D02*
X8590Y38760D01*
X6850Y28990D02*
Y37020D01*
Y28990D02*
X15380Y20460D01*
X5020Y26300D02*
X15360Y15960D01*
X4250Y44370D02*
X4780Y44900D01*
X4250Y25090D02*
Y44370D01*
Y25090D02*
X14580Y14760D01*
X14620Y43300D02*
X16270Y41650D01*
Y39920D02*
Y41650D01*
X15550Y39200D02*
X16270Y39920D01*
X10280Y40450D02*
X14490D01*
X8590Y38760D02*
X10280Y40450D01*
X8590Y38760D02*
Y38760D01*
X10350Y39200D02*
X15550D01*
X8590Y40570D02*
X12920Y44900D01*
Y45470D01*
X28470Y31810D02*
X29820D01*
X23580Y36700D02*
X28470Y31810D01*
X20000Y8260D02*
X20890Y7370D01*
X20000Y8260D02*
Y13940D01*
X19920Y47830D02*
Y48910D01*
X19010Y46920D02*
X19920Y47830D01*
X15310Y46920D02*
X19010D01*
X14620Y46230D02*
X15310Y46920D01*
X14620Y43300D02*
Y46230D01*
X17300Y20080D02*
Y21610D01*
X20890Y7370D02*
X22770D01*
X14580Y14760D02*
X18700D01*
X16140Y25080D02*
Y25090D01*
Y25080D02*
X19620Y21600D01*
X35750Y24000D02*
X35750Y24000D01*
X30880Y24000D02*
X35750D01*
D17*
X24445Y23065D02*
X31590Y30210D01*
X22935Y21555D02*
X24445Y23065D01*
X25910Y21600D02*
X28110D01*
X24445Y23065D02*
X25910Y21600D01*
X28700Y24350D02*
Y25780D01*
Y22830D02*
Y24350D01*
X31130Y20400D02*
X31530Y20000D01*
X28700Y22830D02*
X31130Y20400D01*
X34900Y31980D02*
Y34540D01*
X36970Y11950D02*
Y40920D01*
Y3920D02*
Y11950D01*
X36020D02*
X36970D01*
X34180Y1130D02*
X36970Y3920D01*
X31530Y13860D02*
Y20000D01*
X29775Y12105D02*
X31530Y13860D01*
X14440Y1130D02*
X34180D01*
X17140Y27470D02*
X22890Y21720D01*
X14620Y27470D02*
X17140D01*
X19710Y35220D02*
Y35240D01*
X19685Y35205D02*
X24970Y40490D01*
X19690Y35200D02*
X19710Y35220D01*
X17470Y41540D02*
X17500Y41570D01*
X17470Y38400D02*
Y41540D01*
X14930Y35860D02*
X17470Y38400D01*
X10930Y11850D02*
X10950Y11870D01*
X10930Y4790D02*
Y11850D01*
X9360Y35860D02*
X14930D01*
X23500Y41940D02*
X24860Y40580D01*
X23500Y41940D02*
Y46180D01*
X32450D01*
X20460D02*
X23500D01*
X9360Y31380D02*
Y35860D01*
Y31380D02*
X13270Y27470D01*
X14620D01*
X36910Y40980D02*
X36970Y40920D01*
X27970Y2630D02*
X29760Y4420D01*
Y12120D01*
X28700Y25780D02*
X34900Y31980D01*
X10930Y4790D02*
X16570D01*
X22780Y2630D02*
X27970D01*
X16570Y4790D02*
X18595Y6815D01*
X22780Y2630D01*
X31590Y30210D02*
Y38590D01*
X33980Y40980D01*
X36910D01*
D18*
X2140Y44050D02*
D03*
X47860D02*
D03*
D19*
X2140Y41510D02*
D03*
Y38970D02*
D03*
Y36430D02*
D03*
Y33890D02*
D03*
Y31350D02*
D03*
Y28810D02*
D03*
Y26270D02*
D03*
Y23730D02*
D03*
Y21190D02*
D03*
Y18650D02*
D03*
Y16110D02*
D03*
Y13570D02*
D03*
Y11030D02*
D03*
Y8490D02*
D03*
Y5950D02*
D03*
X47860Y41510D02*
D03*
Y38970D02*
D03*
Y36430D02*
D03*
Y33890D02*
D03*
Y31350D02*
D03*
Y28810D02*
D03*
Y26270D02*
D03*
Y23730D02*
D03*
Y21190D02*
D03*
Y18650D02*
D03*
Y16110D02*
D03*
Y13570D02*
D03*
Y11030D02*
D03*
Y8490D02*
D03*
Y5950D02*
D03*
D20*
X32620Y48910D02*
D03*
X30080D02*
D03*
X27540D02*
D03*
X25000D02*
D03*
X19920D02*
D03*
X22460D02*
D03*
D21*
X17380D02*
D03*
D22*
X26090Y11440D02*
D03*
X28110Y21600D02*
D03*
X28700Y24350D02*
D03*
X24570Y20400D02*
D03*
X19620Y21600D02*
D03*
X34900Y34540D02*
D03*
X36000Y11950D02*
D03*
X14440Y1130D02*
D03*
X22930Y21580D02*
D03*
X22840Y11510D02*
D03*
X19190Y15710D02*
D03*
X26050Y19160D02*
D03*
X29510Y15550D02*
D03*
X19690Y35200D02*
D03*
X10950Y11870D02*
D03*
X17500Y41570D02*
D03*
X24970Y40490D02*
D03*
X9360Y35860D02*
D03*
X14620Y27470D02*
D03*
X36910Y40980D02*
D03*
X10930Y4790D02*
D03*
X29760Y12120D02*
D03*
X32450Y46180D02*
D03*
X20460D02*
D03*
X22770Y7370D02*
D03*
X29820Y31810D02*
D03*
X23580Y36700D02*
D03*
X14480Y40450D02*
D03*
X4780Y44900D02*
D03*
X7350Y40360D02*
D03*
X15360Y15960D02*
D03*
X12920Y45470D02*
D03*
X15340Y18330D02*
D03*
X15380Y20460D02*
D03*
X16140Y25090D02*
D03*
X35750Y24000D02*
D03*
X30880Y23990D02*
D03*
X18720Y6970D02*
D03*
M02*
