M48
;Layer_Color=9474304
;FILE_FORMAT=4:3
METRIC,LZ
;TYPE=PLATED
T1F00S00C0.600
T2F00S00C0.900
%
T01
X001444Y000113
X003691Y004098
X00349Y003454
X002982Y003181
X00287Y002435
X003088Y002399
X003575Y0024
X002811Y00216
X002605Y001916
X002457Y00204
X002293Y002158
X001962Y00216
X001538Y002046
X001534Y001833
X001536Y001596
X001919Y001571
X002284Y001151
X002609Y001144
X002976Y001212
X002951Y001555
X0036Y001195
X002277Y000737
X001872Y000697
X001093Y000479
X001095Y001187
X001614Y002509
X001462Y002747
X001969Y00352
X002358Y00367
X002497Y004049
X00175Y004157
X001448Y004045
X000735Y004036
X000936Y003586
X001292Y004547
X002046Y004618
X003245
X000478Y00449
T02
X004786Y000595
Y000849
Y001103
Y001357
Y001611
Y001865
Y002119
Y002373
Y002627
Y002881
Y003135
Y003389
Y003643
Y003897
Y004151
X000214
Y003897
Y003643
Y003389
Y003135
Y002881
Y002627
Y002373
Y002119
Y001865
Y001611
Y001357
Y001103
Y000849
Y000595
Y004405
X001738Y004891
X001992
X002246
X0025
X002754
X003008
X003262
X004786Y004405
M30
