%FSLAX43Y43*%
%MOMM*%
G71*
G01*
G75*
G04 Layer_Physical_Order=1*
G04 Layer_Color=255*
%ADD10R,1.500X1.400*%
%ADD11R,1.600X0.600*%
%ADD12R,0.600X1.600*%
%ADD13R,1.400X1.500*%
%ADD14O,2.000X0.350*%
%ADD15O,0.350X2.000*%
%ADD16C,0.300*%
%ADD17C,0.500*%
%ADD18R,1.700X1.700*%
%ADD19C,1.700*%
%ADD20C,1.500*%
%ADD21R,1.500X1.500*%
%ADD22C,1.270*%
D10*
X21700Y17510D02*
D03*
Y15510D02*
D03*
X11610Y37280D02*
D03*
Y35280D02*
D03*
X24970Y46150D02*
D03*
Y44150D02*
D03*
X26750Y23650D02*
D03*
Y25650D02*
D03*
X17310Y44150D02*
D03*
Y46150D02*
D03*
D11*
X9870Y47960D02*
D03*
X11670Y48910D02*
D03*
Y47010D02*
D03*
X4070Y47960D02*
D03*
X5870Y48910D02*
D03*
Y47010D02*
D03*
X6660Y43000D02*
D03*
X8460Y43950D02*
D03*
Y42050D02*
D03*
X12810Y43000D02*
D03*
X14610Y43950D02*
D03*
Y42050D02*
D03*
X10320Y13180D02*
D03*
X8520Y12230D02*
D03*
Y14130D02*
D03*
X9540Y6320D02*
D03*
X7740Y5370D02*
D03*
Y7270D02*
D03*
D12*
X5670Y9120D02*
D03*
X4720Y10920D02*
D03*
X6620D02*
D03*
X5690Y1730D02*
D03*
X4740Y3530D02*
D03*
X6640D02*
D03*
D13*
X44860Y11030D02*
D03*
X42860D02*
D03*
X44860Y8490D02*
D03*
X42860D02*
D03*
X44860Y18650D02*
D03*
X42860D02*
D03*
X7140Y28810D02*
D03*
X5140D02*
D03*
X7140Y31350D02*
D03*
X5140D02*
D03*
X7140Y33890D02*
D03*
X5140D02*
D03*
X30170Y3450D02*
D03*
X28170D02*
D03*
X44860Y41510D02*
D03*
Y38990D02*
D03*
Y36430D02*
D03*
Y33890D02*
D03*
Y31350D02*
D03*
Y28810D02*
D03*
Y26270D02*
D03*
Y5950D02*
D03*
Y13570D02*
D03*
Y16110D02*
D03*
Y21190D02*
D03*
Y23730D02*
D03*
Y44050D02*
D03*
X42860D02*
D03*
Y41510D02*
D03*
Y38990D02*
D03*
Y36430D02*
D03*
Y33890D02*
D03*
Y31350D02*
D03*
Y28810D02*
D03*
Y26270D02*
D03*
Y23730D02*
D03*
Y21190D02*
D03*
Y16110D02*
D03*
Y13570D02*
D03*
Y5950D02*
D03*
X7140Y26270D02*
D03*
Y23730D02*
D03*
Y21190D02*
D03*
Y18650D02*
D03*
Y16110D02*
D03*
X5140Y23730D02*
D03*
Y21190D02*
D03*
Y18650D02*
D03*
Y16110D02*
D03*
Y26270D02*
D03*
D14*
X30100Y10015D02*
D03*
Y9365D02*
D03*
Y8715D02*
D03*
Y8065D02*
D03*
Y7415D02*
D03*
Y6765D02*
D03*
Y6115D02*
D03*
Y5465D02*
D03*
X35900Y10015D02*
D03*
Y9365D02*
D03*
Y8715D02*
D03*
Y8065D02*
D03*
Y7415D02*
D03*
Y6765D02*
D03*
Y6115D02*
D03*
Y5465D02*
D03*
X20790Y8935D02*
D03*
Y9585D02*
D03*
Y10235D02*
D03*
Y10885D02*
D03*
Y11535D02*
D03*
Y12185D02*
D03*
Y12835D02*
D03*
Y13485D02*
D03*
X14990Y8935D02*
D03*
Y9585D02*
D03*
Y10235D02*
D03*
Y10885D02*
D03*
Y11535D02*
D03*
Y12185D02*
D03*
Y12835D02*
D03*
Y13485D02*
D03*
X30090Y30365D02*
D03*
Y29715D02*
D03*
Y29065D02*
D03*
Y28415D02*
D03*
Y27765D02*
D03*
Y27115D02*
D03*
Y26465D02*
D03*
Y25815D02*
D03*
X35890Y30365D02*
D03*
Y29715D02*
D03*
Y29065D02*
D03*
Y28415D02*
D03*
Y27765D02*
D03*
Y27115D02*
D03*
Y26465D02*
D03*
Y25815D02*
D03*
D15*
X18175Y35750D02*
D03*
X17525D02*
D03*
X16875D02*
D03*
X16225D02*
D03*
X15575D02*
D03*
X14925D02*
D03*
X14275D02*
D03*
X13625D02*
D03*
X18175Y29950D02*
D03*
X17525D02*
D03*
X16875D02*
D03*
X16225D02*
D03*
X15575D02*
D03*
X14925D02*
D03*
X14275D02*
D03*
X13625D02*
D03*
D16*
X26090Y11270D02*
Y11440D01*
X26050Y11230D02*
X26090Y11270D01*
X26050Y11230D02*
X26430D01*
X18720Y6970D02*
X20100D01*
X18720Y7090D02*
Y9040D01*
X20100Y6970D02*
X23650Y3420D01*
X28260D01*
X26915Y25815D02*
X30090D01*
X24585Y20345D02*
X24640Y20400D01*
X24510Y20420D02*
X24585Y20345D01*
X24510Y20420D02*
Y22300D01*
X23610Y23200D02*
X24510Y22300D01*
X24570Y20400D02*
X24640D01*
X22460Y25500D02*
X28365Y19595D01*
X22410Y25500D02*
X22460D01*
X22640Y23200D02*
X23610D01*
X20130Y20690D02*
X22640Y23200D01*
X18990Y23130D02*
X20020D01*
X18220Y22360D02*
X18990Y23130D01*
X18220Y21330D02*
Y22360D01*
X20020Y23130D02*
X22400Y25510D01*
X17590Y20700D02*
X18220Y21330D01*
X17590Y12840D02*
Y20700D01*
X17090Y12060D02*
Y22800D01*
X16590Y11560D02*
Y23790D01*
X20130Y16690D02*
Y20690D01*
X22410Y25500D02*
Y36380D01*
X35890Y30365D02*
Y30610D01*
X36020Y10135D02*
Y11950D01*
X30260Y2810D02*
Y3420D01*
X28850Y5450D02*
X29925D01*
X28270Y4870D02*
X28850Y5450D01*
X28270Y3430D02*
Y4870D01*
X14990Y6770D02*
Y8935D01*
X14440Y6220D02*
X14990Y6770D01*
X14440Y1130D02*
Y6220D01*
X26430Y11230D02*
Y16070D01*
Y9400D02*
Y11230D01*
X20790Y10885D02*
X22215D01*
X22840Y11510D01*
X26430Y16070D02*
X32440Y22080D01*
X26430Y9400D02*
X27765Y8065D01*
X18100Y20100D02*
X19600Y21600D01*
X18100Y13760D02*
Y20100D01*
X16590Y23790D02*
X20840Y28040D01*
X16590Y11560D02*
X17915Y10235D01*
X17090Y22800D02*
X21590Y27300D01*
X17090Y12060D02*
X18265Y10885D01*
X17590Y12840D02*
X18895Y11535D01*
X21700Y15510D02*
X21700Y15510D01*
X21310Y15510D02*
X21700D01*
X20130Y16690D02*
X21310Y15510D01*
X19200Y13367D02*
Y15400D01*
Y13367D02*
X19732Y12835D01*
X20790Y13485D02*
X21700Y14395D01*
Y15510D01*
X28505Y16555D02*
X32960Y21010D01*
X27300Y15350D02*
X28505Y16555D01*
X20790Y10235D02*
X23305D01*
X23960Y10890D01*
Y17070D01*
X26050Y19160D01*
X28505Y16555D02*
X29510Y15550D01*
X19235Y9585D02*
X20790D01*
X13290Y16340D02*
X15310Y18360D01*
X13290Y12990D02*
Y16340D01*
X17525Y35750D02*
Y37031D01*
X17764Y37270D01*
X18550D01*
X19690Y36130D01*
Y35200D02*
Y36130D01*
X20840Y28040D02*
Y35950D01*
X18900Y37890D02*
X20840Y35950D01*
X17677Y37890D02*
X18900D01*
X21590Y27300D02*
Y36190D01*
X19270Y38510D02*
X21590Y36190D01*
X17590Y38510D02*
X19270D01*
X19150Y39640D02*
X22410Y36380D01*
X17670Y39640D02*
X19150D01*
X15575Y37545D02*
X17670Y39640D01*
X15575Y35750D02*
Y37545D01*
X17300Y40240D02*
X19920D01*
X14950Y37890D02*
X17300Y40240D01*
X14950Y35775D02*
Y37890D01*
X19920Y40240D02*
X23580Y36580D01*
X16875Y37088D02*
X17677Y37890D01*
X16225Y37145D02*
X17590Y38510D01*
X14925Y35750D02*
X14950Y35775D01*
X25180Y36360D02*
Y37720D01*
X22460Y40440D02*
X25180Y37720D01*
X22460Y40440D02*
Y48910D01*
X18175Y28665D02*
Y29950D01*
X17710Y28200D02*
X18175Y28665D01*
X15350Y28200D02*
X17710D01*
X14620Y27470D02*
X15350Y28200D01*
X37860Y39050D02*
X42860Y44050D01*
X37860Y30520D02*
Y39050D01*
X37025Y29685D02*
X37860Y30520D01*
X24650Y15880D02*
X31940Y23170D01*
X28370Y10730D02*
X29760Y12120D01*
X28855Y9365D02*
X30100D01*
X28370Y9850D02*
X28855Y9365D01*
X28370Y9850D02*
Y10730D01*
X28375Y8715D02*
X30100D01*
X27300Y9790D02*
X28375Y8715D01*
X27300Y9790D02*
Y15350D01*
X31020Y17850D02*
X33800Y20630D01*
X31020Y10935D02*
Y17850D01*
X30100Y10015D02*
X31020Y10935D01*
X31375Y6765D02*
X31840Y7230D01*
Y17420D01*
X34540Y20120D01*
X29210Y34520D02*
X34880D01*
X27760Y33070D02*
X29210Y34520D01*
X27760Y30850D02*
Y33070D01*
Y30850D02*
X28895Y29715D01*
X30090D01*
X29285Y30365D02*
X30090D01*
X28440Y31210D02*
X29285Y30365D01*
X28440Y31210D02*
Y32440D01*
X29230Y33230D01*
X30170D01*
X29820Y31810D02*
X30610D01*
X14610Y40460D02*
Y42050D01*
X14540Y40390D02*
X14610Y40460D01*
X16130Y40210D02*
Y42570D01*
X13625Y37705D02*
X16130Y40210D01*
X22355Y7370D02*
X22770D01*
X20790Y8935D02*
X22355Y7370D01*
X33800Y20630D02*
Y28620D01*
X30610Y31810D02*
X33800Y28620D01*
X34540Y20120D02*
Y28860D01*
X30170Y33230D02*
X34540Y28860D01*
X27060Y33820D02*
X28320Y35080D01*
X27060Y30100D02*
Y33820D01*
Y30100D02*
X28095Y29065D01*
X26080Y46150D02*
X26440Y45790D01*
Y36440D02*
Y45790D01*
X25190Y35190D02*
X26440Y36440D01*
X27260Y48630D02*
X27540Y48910D01*
X27260Y35460D02*
Y48630D01*
X26340Y34540D02*
X27260Y35460D01*
X28320Y47150D02*
X30080Y48910D01*
X28320Y35080D02*
Y47150D01*
X25190Y29420D02*
Y35190D01*
X26340Y29580D02*
Y34540D01*
X26305Y27115D02*
X30090D01*
X24070Y29350D02*
X26305Y27115D01*
X24070Y29350D02*
Y35250D01*
X25180Y36360D01*
X26845Y27765D02*
X30090D01*
X25190Y29420D02*
X26845Y27765D01*
X32055Y29065D02*
X32960Y28160D01*
Y21010D02*
Y28160D01*
X31120Y28390D02*
X32440Y27070D01*
Y22080D02*
Y27070D01*
X31007Y27765D02*
X31940Y26832D01*
Y23170D02*
Y26832D01*
X31007Y26465D02*
X31440Y26032D01*
Y24550D02*
Y26032D01*
X30880Y23990D02*
X31440Y24550D01*
X30115Y28390D02*
X31120D01*
X30090Y27765D02*
X31007D01*
X30090Y26465D02*
X31007D01*
X23580Y36580D02*
Y36700D01*
X13155Y35280D02*
X13625Y35750D01*
X11610Y35280D02*
X13155D01*
X16875Y35750D02*
Y37088D01*
X16225Y35750D02*
Y37145D01*
X14750Y43950D02*
X16130Y42570D01*
X14610Y43950D02*
X14750D01*
X13625Y35750D02*
Y37705D01*
X5870Y45990D02*
Y47010D01*
X4780Y44900D02*
X5870Y45990D01*
X19732Y12835D02*
X20790D01*
X18100Y13760D02*
X19670Y12190D01*
X7350Y40940D02*
X8460Y42050D01*
X7350Y40360D02*
Y40940D01*
X14990Y15590D02*
X15360Y15960D01*
X14990Y13485D02*
Y15590D01*
X11670Y46720D02*
X12920Y45470D01*
X13290Y12990D02*
X13445Y12835D01*
X14990D01*
X11460Y16540D02*
X15380Y20460D01*
X11460Y15490D02*
Y16540D01*
Y15490D02*
X12650Y14300D01*
Y12600D02*
Y14300D01*
Y12600D02*
X13065Y12185D01*
X14990D01*
X12735Y11535D02*
X14990D01*
X12060Y12210D02*
X12735Y11535D01*
X12060Y12210D02*
Y13420D01*
X11350Y14130D02*
X12060Y13420D01*
X8520Y14130D02*
X11350D01*
X30100Y6765D02*
X31375D01*
X37860Y10200D02*
Y18730D01*
X37025Y9365D02*
X37860Y10200D01*
X18175Y34325D02*
Y35750D01*
Y34325D02*
X19980Y32520D01*
Y28330D02*
Y32520D01*
X18030Y26380D02*
X19980Y28330D01*
X17430Y26380D02*
X18030D01*
X16140Y25090D02*
X17430Y26380D01*
X14900Y25930D02*
X16558Y27587D01*
X14900Y22000D02*
Y25930D01*
X18058Y27587D02*
X19110Y28640D01*
X16558Y27587D02*
X18058D01*
X19110Y28640D02*
Y32237D01*
X16947Y34400D02*
X19110Y32237D01*
X19670Y12190D02*
X20545D01*
X18895Y11535D02*
X20690D01*
X18265Y10885D02*
X20790D01*
X17915Y10235D02*
X20790D01*
X30090Y28415D02*
X30115Y28390D01*
X30075Y28400D02*
X30090Y28415D01*
X27520Y28400D02*
X30075D01*
X26340Y29580D02*
X27520Y28400D01*
X24650Y9440D02*
Y15880D01*
X27765Y8065D02*
X30100D01*
X26675Y7415D02*
X30100D01*
X24650Y9440D02*
X26675Y7415D01*
X30090Y29065D02*
X32055D01*
X40590Y24000D02*
X42860Y26270D01*
X35750Y24000D02*
X40590D01*
X24970Y46150D02*
X26080D01*
X28095Y29065D02*
X30090D01*
X25000Y46180D02*
Y48910D01*
X40850Y3940D02*
X42860Y5950D01*
X35900Y6115D02*
X39435D01*
X39835Y5465D02*
X42860Y8490D01*
X35900Y6765D02*
X39145D01*
X40850Y8470D01*
Y11560D01*
X42860Y13570D01*
X30100Y6115D02*
X32825D01*
X35000Y3940D01*
X40850D01*
X35900Y5465D02*
X39835D01*
X40210Y13460D02*
X42860Y16110D01*
X35900Y7415D02*
X38735D01*
X40210Y8890D01*
Y13460D01*
X39435Y6115D02*
X41510Y8190D01*
Y9680D01*
X42860Y11030D01*
X35900Y8065D02*
X38045D01*
X39400Y9420D01*
Y15190D01*
X42860Y18650D01*
X35900Y8715D02*
X37315D01*
X38610Y10010D01*
Y16940D01*
X42860Y21190D01*
X35900Y9365D02*
X37025D01*
X37860Y18730D02*
X42860Y23730D01*
X35900Y29685D02*
X37025D01*
X38610Y37260D02*
X42860Y41510D01*
X35900Y29035D02*
X37315D01*
X39400Y35510D02*
X42860Y38970D01*
X38045Y28385D02*
X39400Y29740D01*
X35900Y28385D02*
X38045D01*
X41510Y30000D02*
X42860Y31350D01*
X41510Y28510D02*
Y30000D01*
X39435Y26435D02*
X41510Y28510D01*
X40210Y29210D02*
Y33780D01*
X38735Y27735D02*
X40210Y29210D01*
X35900Y27735D02*
X38735D01*
X40210Y33780D02*
X42860Y36430D01*
X35900Y25785D02*
X39835D01*
X40850Y31880D02*
X42860Y33890D01*
X40850Y28790D02*
Y31880D01*
X39145Y27085D02*
X40850Y28790D01*
X35900Y27085D02*
X39145D01*
X39835Y25785D02*
X42860Y28810D01*
X35900Y26435D02*
X39435D01*
X17525Y29950D02*
X17530Y29955D01*
Y33110D01*
X16875Y29950D02*
Y32875D01*
X16350Y33400D02*
X16875Y32875D01*
X16225Y29950D02*
Y32555D01*
X15880Y32900D02*
X16225Y32555D01*
X15575Y29950D02*
Y32035D01*
X14925Y29950D02*
Y31575D01*
X15210Y32400D02*
X15575Y32035D01*
X14600Y31900D02*
X14925Y31575D01*
X14275Y29950D02*
Y31075D01*
X13950Y31400D02*
X14275Y31075D01*
X7140Y26270D02*
X7150Y26260D01*
X16740Y33900D02*
X17530Y33110D01*
X7140Y33900D02*
X16740D01*
X39400Y29740D02*
Y35510D01*
X37315Y29035D02*
X38610Y30330D01*
Y37260D01*
X13185Y9585D02*
X14990D01*
X12330Y8730D02*
X13185Y9585D01*
X12330Y4350D02*
Y8730D01*
X11510Y3530D02*
X12330Y4350D01*
X6640Y3530D02*
X11510D01*
X10705Y10235D02*
X14990D01*
X7740Y7270D02*
X10705Y10235D01*
X6655Y10885D02*
X14990D01*
X6620Y10920D02*
X6655Y10885D01*
X13625Y23375D02*
Y29950D01*
X8900Y18650D02*
X13625Y23375D01*
X7140Y18650D02*
X8900D01*
X7140Y16110D02*
X9010D01*
X14660Y34400D02*
X16947D01*
X14275Y34785D02*
X14660Y34400D01*
X14275Y34785D02*
Y35750D01*
X13350Y31400D02*
X13950D01*
X12820Y31900D02*
X14600D01*
X12080Y32400D02*
X15210D01*
X7140Y28810D02*
X11230Y32900D01*
X15880D01*
X9010Y16110D02*
X14900Y22000D01*
X7140Y31350D02*
X8340D01*
X10390Y33400D01*
X16350D01*
X12150Y30200D02*
X13350Y31400D01*
X10950Y30030D02*
X12820Y31900D01*
X9730Y30050D02*
X12080Y32400D01*
X7140Y21190D02*
X8490D01*
X12150Y24850D01*
Y30200D01*
X7140Y23730D02*
X8490D01*
X10950Y26190D01*
Y30030D01*
X7140Y26270D02*
X8290D01*
X9730Y27710D01*
Y30050D01*
X35890Y30610D02*
X36210Y30930D01*
Y40210D01*
X36960Y40960D01*
X28260Y3420D02*
X28270Y3430D01*
X18710Y9050D02*
Y9060D01*
X19235Y9585D01*
X29350Y1900D02*
X30260Y2810D01*
X21870Y1900D02*
X29350D01*
X14440Y1130D02*
X16400Y3090D01*
X20680D01*
X21870Y1900D01*
D17*
X26750Y22960D02*
Y23650D01*
Y22960D02*
X28110Y21600D01*
X27400Y25650D02*
X28700Y24350D01*
X21700Y17510D02*
Y20320D01*
X22935Y21555D01*
X10610Y12210D02*
X10950Y11870D01*
X8540Y12210D02*
X10610D01*
X8520Y12230D02*
X8540Y12210D01*
X5390Y12220D02*
X8520D01*
X17310Y44150D02*
X17500Y43960D01*
Y41570D02*
Y43960D01*
X24970Y40490D02*
Y44150D01*
X10780Y37280D02*
X11610D01*
X9360Y35860D02*
X10780Y37280D01*
X7740Y5370D02*
X8320Y4790D01*
X10930D01*
X34900Y34540D02*
Y43600D01*
X32450Y46180D02*
X34900Y43600D01*
X20360Y46150D02*
X20460Y46180D01*
X17310Y46150D02*
X20360D01*
X12090Y41000D02*
Y42280D01*
X7520Y36430D02*
X12090Y41000D01*
X2140Y36430D02*
X7520D01*
X10510Y41330D02*
Y44760D01*
X8150Y38970D02*
X10510Y41330D01*
X2140Y38970D02*
X8150D01*
X44860Y23730D02*
X47860D01*
X44860Y21190D02*
X47860D01*
X44860Y18650D02*
X47860D01*
X44860Y16110D02*
X47860D01*
X44860Y13570D02*
X47860D01*
X44860Y11030D02*
X47860D01*
X44860Y8490D02*
X47860D01*
X44860Y5950D02*
X47860D01*
X44860Y26270D02*
X47860D01*
X44860Y28810D02*
X47860D01*
X44860Y31350D02*
X47860D01*
X44860Y33890D02*
X47860D01*
X44860Y36430D02*
X47860D01*
X44860Y38990D02*
X45820D01*
X45840Y38970D01*
X47860D01*
X44860Y41510D02*
X47860D01*
X44860Y44050D02*
X47860D01*
X4190Y33890D02*
X5140D01*
X2140Y23730D02*
X5140D01*
X2140Y21190D02*
X5140D01*
X2140Y18650D02*
X5140D01*
X2140Y16110D02*
X5140D01*
X4190Y26270D02*
X5140D01*
X4190Y28810D02*
X5140D01*
X4190Y31350D02*
X5140D01*
X32620Y48910D02*
X36960Y44570D01*
X2140Y26270D02*
X4190D01*
X2140Y28810D02*
X4190D01*
X2140Y31350D02*
X4190D01*
X2140Y33890D02*
X4190D01*
X2140Y3420D02*
Y5950D01*
Y3420D02*
X3740Y1820D01*
X5700D01*
X4740Y3530D02*
Y4900D01*
X5210Y5370D01*
X7740D01*
X4720Y10920D02*
Y11550D01*
X5390Y12220D01*
X4310Y6320D02*
X9540D01*
X2140Y8490D02*
X4310Y6320D01*
X4050Y9120D02*
X5670D01*
X2140Y11030D02*
X4050Y9120D01*
X2530Y13180D02*
X10320D01*
X2140Y13570D02*
X2530Y13180D01*
X17380Y46230D02*
Y48910D01*
X2760Y47960D02*
X4070D01*
X2140Y47340D02*
X2760Y47960D01*
X2140Y44050D02*
Y47340D01*
X5790Y43000D02*
X6660D01*
X4300Y41510D02*
X5790Y43000D01*
X2140Y41510D02*
X4300D01*
X8460Y43950D02*
Y46150D01*
X7830Y46780D02*
X8460Y46150D01*
X7830Y46780D02*
Y48910D01*
X5870D02*
X7830D01*
X9870Y45400D02*
Y47960D01*
Y45400D02*
X10510Y44760D01*
X14610Y43950D02*
Y48840D01*
X7830Y48910D02*
X17380D01*
X12090Y42280D02*
X12810Y43000D01*
X36960Y40960D02*
Y44570D01*
D18*
X2140Y44050D02*
D03*
X47860D02*
D03*
D19*
X2140Y41510D02*
D03*
Y38970D02*
D03*
Y36430D02*
D03*
Y33890D02*
D03*
Y31350D02*
D03*
Y28810D02*
D03*
Y26270D02*
D03*
Y23730D02*
D03*
Y21190D02*
D03*
Y18650D02*
D03*
Y16110D02*
D03*
Y13570D02*
D03*
Y11030D02*
D03*
Y8490D02*
D03*
Y5950D02*
D03*
X47860Y41510D02*
D03*
Y38970D02*
D03*
Y36430D02*
D03*
Y33890D02*
D03*
Y31350D02*
D03*
Y28810D02*
D03*
Y26270D02*
D03*
Y23730D02*
D03*
Y21190D02*
D03*
Y18650D02*
D03*
Y16110D02*
D03*
Y13570D02*
D03*
Y11030D02*
D03*
Y8490D02*
D03*
Y5950D02*
D03*
D20*
X32620Y48910D02*
D03*
X30080D02*
D03*
X27540D02*
D03*
X25000D02*
D03*
X19920D02*
D03*
X22460D02*
D03*
D21*
X17380D02*
D03*
D22*
X26090Y11440D02*
D03*
X28110Y21600D02*
D03*
X28700Y24350D02*
D03*
X24570Y20400D02*
D03*
X19620Y21600D02*
D03*
X34900Y34540D02*
D03*
X36000Y11950D02*
D03*
X14440Y1130D02*
D03*
X22930Y21580D02*
D03*
X22840Y11510D02*
D03*
X19190Y15710D02*
D03*
X26050Y19160D02*
D03*
X29510Y15550D02*
D03*
X19690Y35200D02*
D03*
X10950Y11870D02*
D03*
X17500Y41570D02*
D03*
X24970Y40490D02*
D03*
X9360Y35860D02*
D03*
X14620Y27470D02*
D03*
X36910Y40980D02*
D03*
X10930Y4790D02*
D03*
X29760Y12120D02*
D03*
X32450Y46180D02*
D03*
X20460D02*
D03*
X22770Y7370D02*
D03*
X29820Y31810D02*
D03*
X23580Y36700D02*
D03*
X14480Y40450D02*
D03*
X4780Y44900D02*
D03*
X7350Y40360D02*
D03*
X15360Y15960D02*
D03*
X12920Y45470D02*
D03*
X15340Y18330D02*
D03*
X15380Y20460D02*
D03*
X16140Y25090D02*
D03*
X35750Y24000D02*
D03*
X30880Y23990D02*
D03*
X18720Y6970D02*
D03*
M02*
